<svg width="32" height="32" viewBox="0 0 32 32" fill="none" xmlns="http://www.w3.org/2000/svg">
<ellipse cx="16" cy="15.9524" rx="16" ry="15.9524" fill="#5A2084"/>
<ellipse cx="16.0476" cy="15.9048" rx="12.0476" ry="12" fill="white"/>
<rect x="14.3809" y="15.9048" width="3.33333" height="10.381" rx="1.66667" fill="#5A2084"/>
<circle cx="15.9999" cy="15.9047" r="2.7619" fill="white"/>
<circle cx="16.0001" cy="15.5238" r="2.38095" fill="#5A2084"/>
<path d="M17.2382 15.5238C17.2382 16.2076 16.6838 16.7619 16.0001 16.7619C15.3163 16.7619 14.762 16.2076 14.762 15.5238C14.762 14.84 15.3163 14.2857 16.0001 14.2857C16.6838 14.2857 17.2382 14.84 17.2382 15.5238ZM15.1075 15.5238C15.1075 16.0168 15.5071 16.4164 16.0001 16.4164C16.493 16.4164 16.8926 16.0168 16.8926 15.5238C16.8926 15.0308 16.493 14.6312 16.0001 14.6312C15.5071 14.6312 15.1075 15.0308 15.1075 15.5238Z" fill="white"/>
</svg>
