<svg width="211" height="40" viewBox="0 0 211 40" fill="none" xmlns="http://www.w3.org/2000/svg">
<g clip-path="url(#clip0_151_2123)">
<rect x="3" y="7" width="9" height="28" rx="4.5" fill="#9900FF"/>
<circle cx="7.5" cy="7.5" r="7.5" fill="white"/>
<circle cx="7.5" cy="7.5" r="6.5" fill="#9900FF"/>
<path d="M11 7.5C11 9.433 9.433 11 7.5 11C5.567 11 4 9.433 4 7.5C4 5.567 5.567 4 7.5 4C9.433 4 11 5.567 11 7.5ZM4.97672 7.5C4.97672 8.89357 6.10643 10.0233 7.5 10.0233C8.89357 10.0233 10.0233 8.89357 10.0233 7.5C10.0233 6.10643 8.89357 4.97672 7.5 4.97672C6.10643 4.97672 4.97672 6.10643 4.97672 7.5Z" fill="white"/>
<path d="M35.4531 10.25V33H31.1406L21.4688 17.2188V33H17.1719V10.25H21.4688L31.1719 26.0469V10.25H35.4531ZM44.125 10.25V33H39.8281V10.25H44.125ZM53.2969 20.0781V23.4688H43V20.0781H53.2969ZM54.5 10.25V13.6406H43V10.25H54.5ZM72.5 29.625V33H60.4062V29.625H72.5ZM61.7188 10.25V33H57.4219V10.25H61.7188ZM70.9219 19.6406V22.9375H60.4062V19.6406H70.9219ZM72.4531 10.25V13.6406H60.4062V10.25H72.4531ZM75.4844 10.25H83.75C85.4792 10.25 86.9635 10.5104 88.2031 11.0312C89.4427 11.5521 90.3958 12.3229 91.0625 13.3438C91.7292 14.3646 92.0625 15.6198 92.0625 17.1094C92.0625 18.2865 91.8542 19.3073 91.4375 20.1719C91.0208 21.0365 90.4323 21.7604 89.6719 22.3438C88.9219 22.9271 88.0365 23.3854 87.0156 23.7188L85.6719 24.4062H78.375L78.3438 21.0156H83.7969C84.6823 21.0156 85.4167 20.8594 86 20.5469C86.5833 20.2344 87.0208 19.8021 87.3125 19.25C87.6146 18.6979 87.7656 18.0677 87.7656 17.3594C87.7656 16.599 87.6198 15.9427 87.3281 15.3906C87.0365 14.8281 86.5938 14.3958 86 14.0938C85.4062 13.7917 84.6562 13.6406 83.75 13.6406H79.7812V33H75.4844V10.25ZM88.3281 33L83.0625 22.8125L87.6094 22.7969L92.9375 32.7812V33H88.3281ZM109.141 25.5156H113.438C113.323 27.0365 112.901 28.3854 112.172 29.5625C111.443 30.7292 110.427 31.6458 109.125 32.3125C107.823 32.9792 106.245 33.3125 104.391 33.3125C102.964 33.3125 101.677 33.0625 100.531 32.5625C99.3958 32.0521 98.4219 31.3281 97.6094 30.3906C96.8073 29.4427 96.1927 28.3073 95.7656 26.9844C95.3385 25.651 95.125 24.1562 95.125 22.5V20.7656C95.125 19.1094 95.3438 17.6146 95.7812 16.2812C96.2188 14.9479 96.8438 13.8125 97.6562 12.875C98.4792 11.9271 99.4635 11.1979 100.609 10.6875C101.766 10.1771 103.057 9.92188 104.484 9.92188C106.339 9.92188 107.906 10.2656 109.188 10.9531C110.469 11.6302 111.464 12.5625 112.172 13.75C112.88 14.9375 113.307 16.3021 113.453 17.8438H109.156C109.073 16.8854 108.865 16.0729 108.531 15.4062C108.208 14.7396 107.719 14.2344 107.062 13.8906C106.417 13.5365 105.557 13.3594 104.484 13.3594C103.651 13.3594 102.917 13.5156 102.281 13.8281C101.656 14.1406 101.135 14.6094 100.719 15.2344C100.302 15.849 99.9896 16.6198 99.7812 17.5469C99.5729 18.4635 99.4688 19.526 99.4688 20.7344V22.5C99.4688 23.6562 99.5625 24.6927 99.75 25.6094C99.9375 26.526 100.229 27.3021 100.625 27.9375C101.021 28.5729 101.531 29.0573 102.156 29.3906C102.781 29.724 103.526 29.8906 104.391 29.8906C105.443 29.8906 106.297 29.724 106.953 29.3906C107.62 29.0573 108.125 28.5677 108.469 27.9219C108.823 27.276 109.047 26.474 109.141 25.5156ZM121.344 10.25V33H117.047V10.25H121.344ZM125.984 10.25H134.25C135.979 10.25 137.464 10.5104 138.703 11.0312C139.943 11.5521 140.896 12.3229 141.562 13.3438C142.229 14.3646 142.562 15.6198 142.562 17.1094C142.562 18.2865 142.354 19.3073 141.938 20.1719C141.521 21.0365 140.932 21.7604 140.172 22.3438C139.422 22.9271 138.536 23.3854 137.516 23.7188L136.172 24.4062H128.875L128.844 21.0156H134.297C135.182 21.0156 135.917 20.8594 136.5 20.5469C137.083 20.2344 137.521 19.8021 137.812 19.25C138.115 18.6979 138.266 18.0677 138.266 17.3594C138.266 16.599 138.12 15.9427 137.828 15.3906C137.536 14.8281 137.094 14.3958 136.5 14.0938C135.906 13.7917 135.156 13.6406 134.25 13.6406H130.281V33H125.984V10.25ZM138.828 33L133.562 22.8125L138.109 22.7969L143.438 32.7812V33H138.828ZM159.641 25.5156H163.938C163.823 27.0365 163.401 28.3854 162.672 29.5625C161.943 30.7292 160.927 31.6458 159.625 32.3125C158.323 32.9792 156.745 33.3125 154.891 33.3125C153.464 33.3125 152.177 33.0625 151.031 32.5625C149.896 32.0521 148.922 31.3281 148.109 30.3906C147.307 29.4427 146.693 28.3073 146.266 26.9844C145.839 25.651 145.625 24.1562 145.625 22.5V20.7656C145.625 19.1094 145.844 17.6146 146.281 16.2812C146.719 14.9479 147.344 13.8125 148.156 12.875C148.979 11.9271 149.964 11.1979 151.109 10.6875C152.266 10.1771 153.557 9.92188 154.984 9.92188C156.839 9.92188 158.406 10.2656 159.688 10.9531C160.969 11.6302 161.964 12.5625 162.672 13.75C163.38 14.9375 163.807 16.3021 163.953 17.8438H159.656C159.573 16.8854 159.365 16.0729 159.031 15.4062C158.708 14.7396 158.219 14.2344 157.562 13.8906C156.917 13.5365 156.057 13.3594 154.984 13.3594C154.151 13.3594 153.417 13.5156 152.781 13.8281C152.156 14.1406 151.635 14.6094 151.219 15.2344C150.802 15.849 150.49 16.6198 150.281 17.5469C150.073 18.4635 149.969 19.526 149.969 20.7344V22.5C149.969 23.6562 150.062 24.6927 150.25 25.6094C150.438 26.526 150.729 27.3021 151.125 27.9375C151.521 28.5729 152.031 29.0573 152.656 29.3906C153.281 29.724 154.026 29.8906 154.891 29.8906C155.943 29.8906 156.797 29.724 157.453 29.3906C158.12 29.0573 158.625 28.5677 158.969 27.9219C159.323 27.276 159.547 26.474 159.641 25.5156ZM181.703 29.625V33H170.266V29.625H181.703ZM171.562 10.25V33H167.266V10.25H171.562ZM199.656 29.625V33H187.562V29.625H199.656ZM188.875 10.25V33H184.578V10.25H188.875ZM198.078 19.6406V22.9375H187.562V19.6406H198.078ZM199.609 10.25V13.6406H187.562V10.25H199.609Z" fill="white"/>
</g>
<defs>
<clipPath id="clip0_151_2123">
<rect width="211" height="40" fill="white"/>
</clipPath>
</defs>
</svg>
